<?xml version="1.0" encoding="UTF-8" standalone="no"?>
<svg
   xmlns:dc="http://purl.org/dc/elements/1.1/"
   xmlns:cc="http://creativecommons.org/ns#"
   xmlns:rdf="http://www.w3.org/1999/02/22-rdf-syntax-ns#"
   xmlns:svg="http://www.w3.org/2000/svg"
   xmlns="http://www.w3.org/2000/svg"
   xmlns:sodipodi="http://sodipodi.sourceforge.net/DTD/sodipodi-0.dtd"
   xmlns:inkscape="http://www.inkscape.org/namespaces/inkscape"
   width="1920.183"
   height="1075.636"
   viewBox="0 0 1920.183 1075.636"
   version="1.1"
   id="svg16"
   sodipodi:docname="banner-bg.svg"
   inkscape:version="1.0 (4035a4fb49, 2020-05-01)">
  <metadata
     id="metadata20">
    <rdf:RDF>
      <cc:Work
         rdf:about="">
        <dc:format>image/svg+xml</dc:format>
        <dc:type
           rdf:resource="http://purl.org/dc/dcmitype/StillImage" />
      </cc:Work>
    </rdf:RDF>
  </metadata>
  <sodipodi:namedview
     inkscape:document-rotation="0"
     pagecolor="#ffffff"
     bordercolor="#666666"
     borderopacity="1"
     objecttolerance="10"
     gridtolerance="10"
     guidetolerance="10"
     inkscape:pageopacity="0"
     inkscape:pageshadow="2"
     inkscape:window-width="1920"
     inkscape:window-height="1017"
     id="namedview18"
     showgrid="false"
     inkscape:zoom="0.53276173"
     inkscape:cx="1404.875"
     inkscape:cy="687.97893"
     inkscape:window-x="-8"
     inkscape:window-y="-8"
     inkscape:window-maximized="1"
     inkscape:current-layer="svg16" />
  <defs
     id="defs9">
    <linearGradient
       id="linear-gradient"
       x1="0.5"
       x2="0.5"
       y2="1"
       gradientUnits="objectBoundingBox">
      <stop
         offset="0"
         stop-color="#361cc1"
         id="stop2" />
      <stop
         offset="1"
         stop-color="#2e82ef"
         id="stop4" />
    </linearGradient>
    <clipPath
       id="clip-path">
      <path
         id="Path_199"
         data-name="Path 199"
         d="M-533.031,278.516s95.269,204.193,401.21,161.147,419.656-32.1,544.188,96.892,343.977,107.54,572.909,67.066,360.19,68.158,401.79,142.968c.041-2.4-.074-1075.621-.074-1075.621l-1920,.011Z"
         transform="translate(533 329)"
         fill="url(#linear-gradient)" />
    </clipPath>
  </defs>
  <g
     style="fill:#3156db;fill-opacity:1"
     id="Group_112"
     data-name="Group 112"
     transform="matrix(2.4740954,0,0,1.31268,0.22019449,3.8329466)">
    <path
       id="Path_195"
       data-name="Path 195"
       d="m -533.089,278.364 c 0,0 100.43,239.944 401.206,191.477 300.776,-48.467 442.068,9.577 537.63,114.941 95.562,105.364 352.091,94.329 580.987,52.374 228.896,-41.955 363.166,41.794 400.36,109.438 0.016,0.016 -0.373,-1075.609 -0.373,-1075.609 l -1919.766,-0.027 z"
       transform="translate(533,329)"
       opacity="0.11"
       fill="url(#linear-gradient)"
       style="fill:#3156db;fill-opacity:1" />
    <path
       id="Path_194"
       data-name="Path 194"
       d="m -533.031,278.516 c 0,0 95.269,204.193 401.21,161.147 305.941,-43.046 419.656,-32.1 544.188,96.892 124.532,128.992 343.977,107.54 572.909,67.066 228.932,-40.474 360.19,68.158 401.79,142.968 0.041,-2.4 -0.074,-1075.621 -0.074,-1075.621 l -1920,0.011 z"
       transform="translate(533,329)"
       fill="url(#linear-gradient)"
       style="fill:#3156db;fill-opacity:1" />
    <g
       style="fill:#3156db;fill-opacity:1"
       id="Mask_Group_6"
       data-name="Mask Group 6"
       clip-path="url(#clip-path)">
      <path
         style="fill:#3156db;fill-opacity:1"
         id="Path_4"
         data-name="Path 4"
         d="m -496.368,321.285 c 0,0 174.242,-392.046 817.433,-255.032 643.191,137.014 869.415,77.467 1056.161,-463.982"
         transform="translate(522,366.416)"
         fill="none"
         stroke="#361cc1"
         stroke-width="128"
         opacity="0.14" />
    </g>
  </g>
</svg>
