<?xml version="1.0" encoding="UTF-8" standalone="no"?>
<svg
   xmlns:dc="http://purl.org/dc/elements/1.1/"
   xmlns:cc="http://creativecommons.org/ns#"
   xmlns:rdf="http://www.w3.org/1999/02/22-rdf-syntax-ns#"
   xmlns:svg="http://www.w3.org/2000/svg"
   xmlns="http://www.w3.org/2000/svg"
   xmlns:xlink="http://www.w3.org/1999/xlink"
   xmlns:sodipodi="http://sodipodi.sourceforge.net/DTD/sodipodi-0.dtd"
   xmlns:inkscape="http://www.inkscape.org/namespaces/inkscape"
   inkscape:version="1.0 (4035a4fb49, 2020-05-01)"
   sodipodi:docname="footer-bg.svg"
   id="svg12"
   version="1.1"
   viewBox="0 0 1920.193 1054.854"
   height="1054.854"
   width="1920.193">
  <metadata
     id="metadata16">
    <rdf:RDF>
      <cc:Work
         rdf:about="">
        <dc:format>image/svg+xml</dc:format>
        <dc:type
           rdf:resource="http://purl.org/dc/dcmitype/StillImage" />
      </cc:Work>
    </rdf:RDF>
  </metadata>
  <sodipodi:namedview
     inkscape:current-layer="svg12"
     inkscape:window-maximized="1"
     inkscape:window-y="-8"
     inkscape:window-x="-8"
     inkscape:cy="602.50786"
     inkscape:cx="-423.00987"
     inkscape:zoom="0.53275895"
     showgrid="false"
     id="namedview14"
     inkscape:window-height="1017"
     inkscape:window-width="1920"
     inkscape:pageshadow="2"
     inkscape:pageopacity="0"
     guidetolerance="10"
     gridtolerance="10"
     objecttolerance="10"
     borderopacity="1"
     bordercolor="#666666"
     pagecolor="#ffffff"
     inkscape:document-rotation="0" />
  <defs
     id="defs7">
    <linearGradient
       gradientUnits="objectBoundingBox"
       x2="0.5"
       y1="1"
       x1="0.5"
       id="linear-gradient">
      <stop
         id="stop2"
         stop-color="#361cc1"
         offset="0" />
      <stop
         id="stop4"
         stop-color="#2e82ef"
         offset="1" />
    </linearGradient>
    <linearGradient
       inkscape:collect="always"
       xlink:href="#linear-gradient-5"
       id="linearGradient845"
       gradientUnits="userSpaceOnUse"
       x1="319.58911"
       x2="319.58911"
       y2="997.52362"
       gradientTransform="scale(1.3360992,0.74844743)"
       y1="-439.63275" />
    <linearGradient
       id="linear-gradient-5"
       x1="0.5"
       x2="0.5"
       y2="1"
       gradientUnits="objectBoundingBox">
      <stop
         offset="0"
         stop-color="#361cc1"
         id="stop2-1" />
      <stop
         offset="1"
         stop-color="#2e82ef"
         id="stop4-7" />
    </linearGradient>
    <linearGradient
       inkscape:collect="always"
       xlink:href="#linear-gradient-5"
       id="linearGradient847"
       gradientUnits="userSpaceOnUse"
       x1="319.6077"
       x2="319.6077"
       y2="997.50372"
       gradientTransform="scale(1.3360815,0.74845734)"
       y1="-439.61356" />
    <linearGradient
       id="linearGradient866"
       x1="0.5"
       x2="0.5"
       y2="1"
       gradientUnits="objectBoundingBox">
      <stop
         offset="0"
         stop-color="#361cc1"
         id="stop862" />
      <stop
         offset="1"
         stop-color="#2e82ef"
         id="stop864" />
    </linearGradient>
    <clipPath
       id="clip-path">
      <path
         id="Path_199"
         data-name="Path 199"
         d="m -533.031,278.516 c 0,0 95.269,204.193 401.21,161.147 305.941,-43.046 419.656,-32.1 544.188,96.892 124.532,128.992 343.977,107.54 572.909,67.066 228.932,-40.474 360.19,68.158 401.79,142.968 0.041,-2.4 -0.074,-1075.621 -0.074,-1075.621 l -1920,0.011 z"
         transform="translate(533,329)"
         fill="url(#linear-gradient)"
         style="fill:url(#linear-gradient-5)" />
    </clipPath>
  </defs>
  <g
     id="Group_112"
     data-name="Group 112"
     transform="matrix(-1.9722031,0,0,-1.247436,3778.5801,1339.7087)">
    <path
       id="Path_195"
       data-name="Path 195"
       d="m -533.089,278.364 c 0,0 100.43,239.944 401.206,191.477 300.776,-48.467 442.068,9.577 537.63,114.941 95.562,105.364 352.091,94.329 580.987,52.374 228.896,-41.955 363.166,41.794 400.36,109.438 0.016,0.016 -0.373,-1075.609 -0.373,-1075.609 l -1919.766,-0.027 z"
       transform="translate(533,329)"
       opacity="0.11"
       fill="url(#linear-gradient)"
       style="fill:url(#linearGradient845)" />
    <path
       id="Path_194"
       data-name="Path 194"
       d="m -533.031,278.516 c 0,0 95.269,204.193 401.21,161.147 305.941,-43.046 419.656,-32.1 544.188,96.892 124.532,128.992 343.977,107.54 572.909,67.066 228.932,-40.474 360.19,68.158 401.79,142.968 0.041,-2.4 -0.074,-1075.621 -0.074,-1075.621 l -1920,0.011 z"
       transform="translate(533,329)"
       fill="url(#linear-gradient)"
       style="fill:url(#linearGradient847)" />
    <g
       id="Mask_Group_6"
       data-name="Mask Group 6"
       clip-path="url(#clip-path)">
      <path
         id="Path_4"
         data-name="Path 4"
         d="m -496.368,321.285 c 0,0 174.242,-392.046 817.433,-255.032 643.191,137.014 869.415,77.467 1056.161,-463.982"
         transform="translate(522,366.416)"
         fill="none"
         stroke="#361cc1"
         stroke-width="128"
         opacity="0.14" />
    </g>
  </g>
</svg>
